M48
; DRILL file {KiCad 9.0.6} date 2026-03-14T17:35:47+0100
; FORMAT={-:-/ absolute / metric / decimal}
; #@! TF.CreationDate,2026-03-14T17:35:47+01:00
; #@! TF.GenerationSoftware,Kicad,Pcbnew,9.0.6
; #@! TF.FileFunction,Plated,1,2,PTH
FMAT,2
METRIC
; #@! TA.AperFunction,Plated,PTH,ViaDrill
T1C0.300
; #@! TA.AperFunction,Plated,PTH,ComponentDrill
T2C0.600
; #@! TA.AperFunction,Plated,PTH,ComponentDrill
T3C0.800
; #@! TA.AperFunction,Plated,PTH,ComponentDrill
T4C0.889
; #@! TA.AperFunction,Plated,PTH,ComponentDrill
T5C0.900
; #@! TA.AperFunction,Plated,PTH,ComponentDrill
T6C1.000
; #@! TA.AperFunction,Plated,PTH,ComponentDrill
T7C1.010
%
G90
G05
T1
X73.66Y-118.11
X87.757Y-104.267
X89.408Y-116.332
X93.218Y-77.47
X95.25Y-104.267
X96.774Y-85.852
X104.394Y-117.856
X106.934Y-90.17
X109.22Y-99.568
X112.014Y-48.768
X117.856Y-108.458
X119.634Y-68.961
X120.65Y-84.836
X121.666Y-65.786
X128.143Y-66.04
X132.461Y-72.009
X133.604Y-79.883
X134.62Y-74.168
X135.572Y-92.138
X136.144Y-52.832
X136.398Y-104.648
X136.398Y-110.236
X136.525Y-77.978
X143.129Y-85.09
X143.129Y-91.44
X143.129Y-97.917
X143.129Y-104.013
X143.129Y-109.855
X144.526Y-74.168
X145.415Y-86.868
X145.542Y-90.17
X146.431Y-85.852
X149.86Y-118.618
X152.4Y-100.838
X152.4Y-107.188
X153.416Y-74.168
X157.353Y-121.158
X161.036Y-111.506
X161.29Y-93.218
X162.052Y-99.568
X162.56Y-74.422
X164.084Y-108.712
X167.386Y-71.755
X167.386Y-83.058
X169.164Y-106.172
X169.418Y-71.882
X170.18Y-71.12
X170.942Y-70.358
X171.704Y-51.054
X171.704Y-69.596
X172.466Y-68.834
X174.461Y-82.079
X175.196Y-81.343
X182.88Y-111.76
X183.134Y-108.458
X185.42Y-49.784
X187.071Y-104.013
X188.722Y-62.865
X195.326Y-97.917
X198.12Y-92.71
X201.422Y-113.538
X205.613Y-66.294
X205.613Y-68.834
X206.121Y-50.165
X206.248Y-79.502
X206.756Y-109.474
X213.36Y-140.716
X216.535Y-122.809
X217.678Y-128.524
X220.853Y-81.153
X227.457Y-128.143
X227.584Y-130.429
X229.997Y-129.841
X232.664Y-131.699
X234.188Y-122.682
T2
X74.946Y-90.678
X76.946Y-90.678
X92.075Y-119.253
X94.075Y-119.253
T3
X84.328Y-119.753
X86.828Y-119.753
X99.65Y-119.753
X102.15Y-119.753
X113.601Y-97.173
X113.601Y-102.173
X115.601Y-97.173
X115.601Y-102.173
X117.601Y-97.173
X117.601Y-102.173
X122.332Y-97.34
X122.332Y-102.34
X122.332Y-106.317
X122.332Y-111.317
X122.341Y-88.363
X122.341Y-93.363
X124.332Y-97.34
X124.332Y-102.34
X124.332Y-106.317
X124.332Y-111.317
X124.341Y-88.363
X124.341Y-93.363
X126.332Y-97.34
X126.332Y-102.34
X126.332Y-106.317
X126.332Y-111.317
X126.341Y-88.363
X126.341Y-93.363
X129.58Y-76.835
X131.0Y-97.3
X131.0Y-102.3
X131.445Y-52.705
X132.08Y-76.835
X133.0Y-97.3
X133.0Y-102.3
X133.945Y-52.705
X135.0Y-97.3
X135.0Y-102.3
X135.128Y-117.931
X137.668Y-117.931
X140.208Y-117.931
X167.087Y-52.705
X169.587Y-52.705
X187.325Y-40.64
X190.325Y-40.64
X194.31Y-55.92
X194.31Y-60.92
X194.31Y-66.155
X194.31Y-71.155
X196.31Y-55.92
X196.31Y-60.92
X196.31Y-66.155
X196.31Y-71.155
X198.31Y-55.92
X198.31Y-60.92
X198.31Y-66.155
X198.31Y-71.155
X227.838Y-109.982
X230.338Y-109.982
T4
X92.745Y-68.365
X92.745Y-70.905
X92.76Y-65.84
X99.125Y-77.255
X101.665Y-77.275
X104.205Y-77.255
X165.745Y-97.905
X165.745Y-100.445
X165.76Y-95.38
X172.125Y-106.795
X174.665Y-106.815
X177.205Y-106.795
T5
X68.771Y-120.516
X68.771Y-135.516
X76.771Y-120.516
X76.771Y-135.516
X85.09Y-125.279
X87.63Y-125.279
X90.17Y-125.279
X92.71Y-125.279
X98.475Y-57.565
X98.475Y-62.505
X171.475Y-87.105
X171.475Y-92.045
T6
X146.38Y-42.4
X146.38Y-61.76
X146.38Y-64.3
X147.193Y-121.412
X148.92Y-42.4
X148.92Y-61.76
X148.92Y-64.3
X149.733Y-121.412
X151.46Y-42.4
X151.46Y-61.76
X151.46Y-64.3
X154.0Y-42.4
X154.0Y-61.76
X154.0Y-64.3
X190.049Y-108.53
X191.782Y-110.387
X193.514Y-112.245
X195.246Y-114.103
X196.978Y-115.96
X198.711Y-117.818
X200.443Y-119.676
X202.175Y-121.533
X203.053Y-96.404
X203.907Y-123.391
X204.785Y-98.262
X205.64Y-125.249
X206.517Y-100.119
X207.372Y-127.106
X208.25Y-101.977
X209.104Y-128.964
X209.982Y-103.834
X210.837Y-130.821
X211.714Y-105.692
X212.569Y-132.679
X213.446Y-107.55
X214.301Y-134.537
X215.179Y-109.407
X216.033Y-136.394
X216.911Y-111.265
X217.766Y-138.252
X218.643Y-113.123
X219.498Y-140.11
X220.376Y-114.98
X221.23Y-141.967
X222.108Y-116.838
X222.963Y-143.825
X223.84Y-118.696
X225.572Y-120.553
X227.305Y-122.411
X229.037Y-124.268
X230.769Y-126.126
X232.501Y-127.984
X234.234Y-129.841
X235.966Y-131.699
T7
X119.614Y-120.961
X124.714Y-119.761
M30
