%TF.GenerationSoftware,KiCad,Pcbnew,9.0.6*%
%TF.CreationDate,2026-03-14T17:35:50+01:00*%
%TF.ProjectId,FlexRC,466c6578-5243-42e6-9b69-6361645f7063,V1*%
%TF.SameCoordinates,Original*%
%TF.FileFunction,Soldermask,Top*%
%TF.FilePolarity,Negative*%
%FSLAX46Y46*%
G04 Gerber Fmt 4.6, Leading zero omitted, Abs format (unit mm)*
G04 Created by KiCad (PCBNEW 9.0.6) date 2026-03-14 17:35:50*
%MOMM*%
%LPD*%
G01*
G04 APERTURE LIST*
G04 Aperture macros list*
%AMRoundRect*
0 Rectangle with rounded corners*
0 $1 Rounding radius*
0 $2 $3 $4 $5 $6 $7 $8 $9 X,Y pos of 4 corners*
0 Add a 4 corners polygon primitive as box body*
4,1,4,$2,$3,$4,$5,$6,$7,$8,$9,$2,$3,0*
0 Add four circle primitives for the rounded corners*
1,1,$1+$1,$2,$3*
1,1,$1+$1,$4,$5*
1,1,$1+$1,$6,$7*
1,1,$1+$1,$8,$9*
0 Add four rect primitives between the rounded corners*
20,1,$1+$1,$2,$3,$4,$5,0*
20,1,$1+$1,$4,$5,$6,$7,0*
20,1,$1+$1,$6,$7,$8,$9,0*
20,1,$1+$1,$8,$9,$2,$3,0*%
%AMHorizOval*
0 Thick line with rounded ends*
0 $1 width*
0 $2 $3 position (X,Y) of the first rounded end (center of the circle)*
0 $4 $5 position (X,Y) of the second rounded end (center of the circle)*
0 Add line between two ends*
20,1,$1,$2,$3,$4,$5,0*
0 Add two circle primitives to create the rounded ends*
1,1,$1,$2,$3*
1,1,$1,$4,$5*%
G04 Aperture macros list end*
%ADD10RoundRect,0.100000X-0.650000X-0.100000X0.650000X-0.100000X0.650000X0.100000X-0.650000X0.100000X0*%
%ADD11RoundRect,0.250000X-0.625000X0.400000X-0.625000X-0.400000X0.625000X-0.400000X0.625000X0.400000X0*%
%ADD12RoundRect,0.250000X0.400000X0.625000X-0.400000X0.625000X-0.400000X-0.625000X0.400000X-0.625000X0*%
%ADD13C,2.286000*%
%ADD14C,1.778000*%
%ADD15O,1.600000X2.000000*%
%ADD16O,1.800000X1.600000*%
%ADD17RoundRect,0.090000X0.360000X-0.660000X0.360000X0.660000X-0.360000X0.660000X-0.360000X-0.660000X0*%
%ADD18RoundRect,0.250000X0.650000X-0.412500X0.650000X0.412500X-0.650000X0.412500X-0.650000X-0.412500X0*%
%ADD19RoundRect,0.250000X-0.400000X-0.625000X0.400000X-0.625000X0.400000X0.625000X-0.400000X0.625000X0*%
%ADD20RoundRect,0.250000X0.550000X0.550000X-0.550000X0.550000X-0.550000X-0.550000X0.550000X-0.550000X0*%
%ADD21C,1.600000*%
%ADD22RoundRect,0.250000X0.412500X0.650000X-0.412500X0.650000X-0.412500X-0.650000X0.412500X-0.650000X0*%
%ADD23RoundRect,0.250000X0.625000X-0.400000X0.625000X0.400000X-0.625000X0.400000X-0.625000X-0.400000X0*%
%ADD24RoundRect,0.250000X-0.550000X-0.550000X0.550000X-0.550000X0.550000X0.550000X-0.550000X0.550000X0*%
%ADD25RoundRect,0.250000X-0.412500X-0.650000X0.412500X-0.650000X0.412500X0.650000X-0.412500X0.650000X0*%
%ADD26C,1.200000*%
%ADD27RoundRect,0.250000X-0.650000X0.412500X-0.650000X-0.412500X0.650000X-0.412500X0.650000X0.412500X0*%
%ADD28RoundRect,0.090000X-0.660000X-0.360000X0.660000X-0.360000X0.660000X0.360000X-0.660000X0.360000X0*%
%ADD29HorizOval,1.600000X-0.146271X-0.136400X0.146271X0.136400X0*%
%ADD30O,2.000000X1.600000*%
%ADD31C,2.010000*%
%ADD32C,2.000000*%
G04 APERTURE END LIST*
D10*
%TO.C,U3*%
X121125000Y-78075000D03*
X121125000Y-79375000D03*
X118465000Y-79375000D03*
X118465000Y-78725000D03*
X118465000Y-78075000D03*
%TD*%
D11*
%TO.C,R18*%
X213233000Y-65760000D03*
X213233000Y-68860000D03*
%TD*%
D12*
%TO.C,R10*%
X126290000Y-66040000D03*
X123190000Y-66040000D03*
%TD*%
D13*
%TO.C,JOY_L_1*%
X95300000Y-63315200D03*
X95300000Y-73445200D03*
D14*
X104825000Y-57585000D03*
X104835000Y-62525200D03*
D13*
X108000000Y-63300000D03*
X108000000Y-73460000D03*
D14*
X98475000Y-62505200D03*
X98475000Y-57565200D03*
X99125000Y-77255200D03*
X101665000Y-77275200D03*
X104205000Y-77255200D03*
X92760000Y-65840000D03*
X92745000Y-68365200D03*
X92745000Y-70905200D03*
%TD*%
D13*
%TO.C,JOY_R_1*%
X168300000Y-92855200D03*
X168300000Y-102985200D03*
D14*
X177825000Y-87125000D03*
X177835000Y-92065200D03*
D13*
X181000000Y-92840000D03*
X181000000Y-103000000D03*
D14*
X171475000Y-92045200D03*
X171475000Y-87105200D03*
X172125000Y-106795200D03*
X174665000Y-106815200D03*
X177205000Y-106795200D03*
X165760000Y-95380000D03*
X165745000Y-97905200D03*
X165745000Y-100445200D03*
%TD*%
D15*
%TO.C,U2*%
X76771000Y-135516000D03*
X68771000Y-135516000D03*
X76771000Y-120516000D03*
X68771000Y-120516000D03*
%TD*%
D16*
%TO.C,R8*%
X187325000Y-40640000D03*
X190325000Y-40640000D03*
%TD*%
D17*
%TO.C,D2*%
X147846000Y-78847000D03*
X151146000Y-78847000D03*
X151146000Y-73947000D03*
X147846000Y-73947000D03*
%TD*%
D16*
%TO.C,SW_F2*%
X194310000Y-55920000D03*
X196310000Y-55920000D03*
X198310000Y-55920000D03*
X194310000Y-60920000D03*
X196310000Y-60920000D03*
X198310000Y-60920000D03*
%TD*%
D11*
%TO.C,R28*%
X177800000Y-110591000D03*
X177800000Y-113691000D03*
%TD*%
D18*
%TO.C,C19*%
X171323000Y-113703500D03*
X171323000Y-110578500D03*
%TD*%
D16*
%TO.C,SW_D1*%
X122332000Y-106317000D03*
X124332000Y-106317000D03*
X126332000Y-106317000D03*
X122332000Y-111317000D03*
X124332000Y-111317000D03*
X126332000Y-111317000D03*
%TD*%
D19*
%TO.C,R9*%
X194945000Y-44577000D03*
X198045000Y-44577000D03*
%TD*%
D20*
%TO.C,C23*%
X132080000Y-76835000D03*
D21*
X129580000Y-76835000D03*
%TD*%
D16*
%TO.C,SW_PWR_1*%
X140208000Y-117931000D03*
X137668000Y-117931000D03*
X135128000Y-117931000D03*
%TD*%
D22*
%TO.C,C6*%
X214795500Y-144018000D03*
X211670500Y-144018000D03*
%TD*%
D23*
%TO.C,R25*%
X208153000Y-68860000D03*
X208153000Y-65760000D03*
%TD*%
D24*
%TO.C,C7*%
X167087400Y-52705000D03*
D21*
X169587400Y-52705000D03*
%TD*%
D24*
%TO.C,C3*%
X99650375Y-119753000D03*
D21*
X102150375Y-119753000D03*
%TD*%
D16*
%TO.C,SW_R1*%
X131000000Y-97300000D03*
X133000000Y-97300000D03*
X135000000Y-97300000D03*
X131000000Y-102300000D03*
X133000000Y-102300000D03*
X135000000Y-102300000D03*
%TD*%
D25*
%TO.C,C24*%
X139168500Y-82550000D03*
X142293500Y-82550000D03*
%TD*%
D15*
%TO.C,DS1*%
X146380000Y-42400000D03*
X148920000Y-42400000D03*
X151460000Y-42400000D03*
X154000000Y-42400000D03*
%TD*%
D26*
%TO.C,C2*%
X92075000Y-119253000D03*
X94075000Y-119253000D03*
%TD*%
D27*
%TO.C,C27*%
X180340000Y-66128500D03*
X180340000Y-69253500D03*
%TD*%
D12*
%TO.C,R5*%
X77242000Y-96647000D03*
X74142000Y-96647000D03*
%TD*%
D16*
%TO.C,SW_L1*%
X113601000Y-97173000D03*
X115601000Y-97173000D03*
X117601000Y-97173000D03*
X113601000Y-102173000D03*
X115601000Y-102173000D03*
X117601000Y-102173000D03*
%TD*%
D12*
%TO.C,R4*%
X77242000Y-100711000D03*
X74142000Y-100711000D03*
%TD*%
D16*
%TO.C,SW_F1*%
X194310000Y-66155000D03*
X196310000Y-66155000D03*
X198310000Y-66155000D03*
X194310000Y-71155000D03*
X196310000Y-71155000D03*
X198310000Y-71155000D03*
%TD*%
D12*
%TO.C,R6*%
X126290000Y-53975000D03*
X123190000Y-53975000D03*
%TD*%
D25*
%TO.C,C8*%
X167005000Y-62230000D03*
X170130000Y-62230000D03*
%TD*%
D11*
%TO.C,R27*%
X104775000Y-81000000D03*
X104775000Y-84100000D03*
%TD*%
D18*
%TO.C,C20*%
X98425000Y-84112500D03*
X98425000Y-80987500D03*
%TD*%
D27*
%TO.C,C17*%
X203073000Y-65747500D03*
X203073000Y-68872500D03*
%TD*%
D15*
%TO.C,U1*%
X92710000Y-125279000D03*
X90170000Y-125279000D03*
X87630000Y-125279000D03*
X85090000Y-125279000D03*
%TD*%
D28*
%TO.C,D5*%
X185510000Y-55805000D03*
X185510000Y-59105000D03*
X190410000Y-59105000D03*
X190410000Y-55805000D03*
%TD*%
D17*
%TO.C,D3*%
X156900000Y-78904000D03*
X160200000Y-78904000D03*
X160200000Y-74004000D03*
X156900000Y-74004000D03*
%TD*%
D12*
%TO.C,R1*%
X73940000Y-112522000D03*
X70840000Y-112522000D03*
%TD*%
D18*
%TO.C,C21*%
X98425000Y-90462500D03*
X98425000Y-87337500D03*
%TD*%
D23*
%TO.C,R26*%
X208280000Y-58674000D03*
X208280000Y-55574000D03*
%TD*%
D22*
%TO.C,C9*%
X203746500Y-47625000D03*
X200621500Y-47625000D03*
%TD*%
D18*
%TO.C,C22*%
X171323000Y-119037500D03*
X171323000Y-115912500D03*
%TD*%
D11*
%TO.C,R29*%
X104775000Y-87350000D03*
X104775000Y-90450000D03*
%TD*%
D24*
%TO.C,C10*%
X131445000Y-52705000D03*
D21*
X133945000Y-52705000D03*
%TD*%
D26*
%TO.C,C4*%
X76946000Y-90678000D03*
X74946000Y-90678000D03*
%TD*%
D16*
%TO.C,SW_C1*%
X122332000Y-97340000D03*
X124332000Y-97340000D03*
X126332000Y-97340000D03*
X122332000Y-102340000D03*
X124332000Y-102340000D03*
X126332000Y-102340000D03*
%TD*%
D12*
%TO.C,R7*%
X126290000Y-60395000D03*
X123190000Y-60395000D03*
%TD*%
%TO.C,R2*%
X73940000Y-108458000D03*
X70840000Y-108458000D03*
%TD*%
%TO.C,R11*%
X126390000Y-72040000D03*
X123290000Y-72040000D03*
%TD*%
D17*
%TO.C,D1*%
X138776000Y-78718000D03*
X142076000Y-78718000D03*
X142076000Y-73818000D03*
X138776000Y-73818000D03*
%TD*%
D11*
%TO.C,R19*%
X213360000Y-55574000D03*
X213360000Y-58674000D03*
%TD*%
D28*
%TO.C,D4*%
X190410000Y-66040000D03*
X190410000Y-69340000D03*
X185510000Y-69340000D03*
X185510000Y-66040000D03*
%TD*%
D12*
%TO.C,R31*%
X126390000Y-82423000D03*
X123290000Y-82423000D03*
%TD*%
D19*
%TO.C,R12*%
X200660000Y-44577000D03*
X203760000Y-44577000D03*
%TD*%
D29*
%TO.C,A1*%
X235966000Y-131699000D03*
X234233724Y-129841362D03*
X232501448Y-127983723D03*
X230769172Y-126126085D03*
X229036897Y-124268446D03*
X227304621Y-122410808D03*
X225572345Y-120553170D03*
X223840069Y-118695531D03*
X222107793Y-116837893D03*
X220375517Y-114980254D03*
X218643242Y-113122616D03*
X216910966Y-111264978D03*
X215178690Y-109407339D03*
X213446414Y-107549701D03*
X211714138Y-105692062D03*
X209981862Y-103834424D03*
X208249587Y-101976786D03*
X206517311Y-100119147D03*
X204785035Y-98261509D03*
X203052759Y-96403870D03*
X190049290Y-108529801D03*
X191781566Y-110387440D03*
X193513842Y-112245078D03*
X195246118Y-114102716D03*
X196978394Y-115960355D03*
X198710670Y-117817993D03*
X200442945Y-119675632D03*
X202175221Y-121533270D03*
X203907497Y-123390908D03*
X205639773Y-125248547D03*
X207372049Y-127106185D03*
X209104325Y-128963824D03*
X210836600Y-130821462D03*
X212568876Y-132679100D03*
X214301152Y-134536739D03*
X216033428Y-136394377D03*
X217765704Y-138252016D03*
X219497980Y-140109654D03*
X221230255Y-141967292D03*
X222962531Y-143824931D03*
%TD*%
D25*
%TO.C,C26*%
X157292500Y-82550000D03*
X160417500Y-82550000D03*
%TD*%
D24*
%TO.C,C1*%
X84328000Y-119753000D03*
D21*
X86828000Y-119753000D03*
%TD*%
D25*
%TO.C,C25*%
X148238500Y-82550000D03*
X151363500Y-82550000D03*
%TD*%
D24*
%TO.C,C5*%
X227838000Y-109982000D03*
D21*
X230338000Y-109982000D03*
%TD*%
D11*
%TO.C,R30*%
X177800000Y-115925000D03*
X177800000Y-119025000D03*
%TD*%
D27*
%TO.C,C28*%
X180340000Y-55587500D03*
X180340000Y-58712500D03*
%TD*%
D12*
%TO.C,R3*%
X77242000Y-104775000D03*
X74142000Y-104775000D03*
%TD*%
D25*
%TO.C,C11*%
X130810000Y-60960000D03*
X133935000Y-60960000D03*
%TD*%
D27*
%TO.C,C18*%
X203200000Y-55561500D03*
X203200000Y-58686500D03*
%TD*%
D16*
%TO.C,SW_U1*%
X122341000Y-88363000D03*
X124341000Y-88363000D03*
X126341000Y-88363000D03*
X122341000Y-93363000D03*
X124341000Y-93363000D03*
X126341000Y-93363000D03*
%TD*%
D30*
%TO.C,TX1*%
X154000000Y-64300000D03*
X154000000Y-61760000D03*
X151460000Y-64300000D03*
X151460000Y-61760000D03*
X148920000Y-64300000D03*
X148920000Y-61760000D03*
X146380000Y-64300000D03*
X146380000Y-61760000D03*
%TD*%
D31*
%TO.C,F1*%
X124714000Y-119761000D03*
X119614000Y-120961000D03*
%TD*%
D32*
%TO.C,J1*%
X149733000Y-121412000D03*
X147193000Y-121412000D03*
%TD*%
M02*
